<svg xmlns="http://www.w3.org/2000/svg" fill="none" stroke="#fff" stroke-linecap="square" stroke-linejoin="miter" viewBox="0 0 960 1080"><path stroke-width="2.4" d="M756.7 75.6L750.3 97.2L744.2 118.8L738.3 140.5L732.5 162.2L727 184L721.6 205.8L716.5 227.7L711.5 249.6L706.8 271.6L702.3 293.6L697.9 315.7L693.8 337.7L689.9 359.9L686.2 382L682.7 404.2L679.4 426.5L676.3 448.7L673.4 471L670.7 493.3L668.2 515.7L665.9 538L663.8 560.4L662 582.8L660.3 605.2L658.9 627.7L657.6 650.1L656.6 672.6L655.7 695L655.1 717.5L654.7 740L654.5 762.4L654.5 784.9L654.7 807.4L655.1 829.9L655.7 852.3L656.6 874.8L657.6 897.3L658.9 919.7L660.3 942.1L662 964.5L663.8 986.9L665.9 1009.3L668.2 1031.7L669.4 1042.9L341.4 1079.3L340 1066.6L337.5 1041.3L335.1 1015.8L333 990.4L331.1 965L329.5 939.5L328 914L326.9 888.5L325.9 863L325.2 837.5L324.7 812L324.5 786.4L324.5 760.9L324.7 735.4L325.2 709.9L325.9 684.4L326.9 658.9L328 633.4L329.5 607.9L331.1 582.4L333 557L335.1 531.5L337.5 506.1L340 480.7L342.9 455.4L345.9 430L349.2 404.7L352.7 379.4L356.5 354.2L360.5 329L364.7 303.8L369.1 278.7L373.8 253.6L378.8 228.5L383.9 203.5L389.3 178.6L394.9 153.7L400.7 128.8L406.8 104L413.1 79.3L419.6 54.6L426.4 30L433.3 5.5L440.5 -19Z"/><path stroke-width="1.3" d="M706.9 60.7L703.6 71.7L700.4 82.7L697.2 93.7L694.1 104.8L691.1 115.9L688 126.9L685.1 138L682.2 149.1L679.3 160.2L676.5 171.4L673.8 182.5L671.1 193.7L668.4 204.8L665.8 216L663.3 227.2L660.8 238.4L658.3 249.6L655.9 260.9L653.6 272.1L651.3 283.3L649.1 294.6L646.9 305.9L644.7 317.1L642.7 328.4L640.6 339.7L638.7 351L636.7 362.4L634.9 373.7L633 385L631.3 396.4L629.6 407.7L627.9 419.1L626.3 430.4L624.7 441.8L623.2 453.2L621.8 464.6L620.4 476L619 487.4L617.7 498.8L616.5 510.2L615.3 521.6L614.1 533L613.1 544.4L612 555.9L611.1 567.3L610.1 578.8L609.3 590.2L608.4 601.6L607.7 613.1L607 624.6L606.3 636L605.7 647.5L605.1 658.9L604.6 670.4L604.2 681.9L603.8 693.3L603.4 704.8L603.1 716.3L602.9 727.8L602.7 739.2L602.6 750.7L602.5 762.2L602.5 773.7L602.5 785.2L602.6 796.6L602.7 808.1L602.9 819.6L603.1 831.1L603.4 842.5L603.8 854L604.2 865.5L604.6 877L605.1 888.4L605.7 899.9L606.3 911.4L607 922.8L607.7 934.3L608.4 945.7L609.3 957.2L610.1 968.6L611.1 980.1L612 991.5L613.1 1002.9L614.1 1014.4L615.3 1025.8L616.5 1037.2L617.7 1048.6M490.4 -4.1L486.8 7.9L483.3 19.9L479.8 32L476.4 44L473.1 56.1L469.8 68.2L466.6 80.3L463.4 92.4L460.3 104.5L457.2 116.6L454.2 128.8L451.3 141L448.4 153.1L445.6 165.3L442.8 177.6L440.1 189.8L437.4 202L434.8 214.3L432.2 226.5L429.7 238.8L427.3 251.1L424.9 263.4L422.6 275.7L420.3 288L418.1 300.3L415.9 312.6L413.8 325L411.8 337.3L409.8 349.7L407.9 362.1L406 374.5L404.2 386.8L402.4 399.2L400.7 411.6L399.1 424.1L397.5 436.5L396 448.9L394.5 461.3L393.1 473.8L391.7 486.2L390.5 498.7L389.2 511.1L388 523.6L386.9 536.1L385.8 548.6L384.8 561L383.9 573.5L383 586L382.1 598.5L381.4 611L380.6 623.5L380 636L379.4 648.5L378.8 661L378.3 673.5L377.9 686L377.5 698.6L377.2 711.1L376.9 723.6L376.7 736.1L376.6 748.6L376.5 761.2L376.5 773.7L376.5 786.2L376.6 798.7L376.7 811.2L376.9 823.8L377.2 836.3L377.5 848.8L377.9 861.3L378.3 873.8L378.8 886.3L379.4 898.9L380 911.4L380.6 923.9L381.4 936.4L382.1 948.9L383 961.4L383.9 973.8L384.8 986.3L385.8 998.8L386.9 1011.3L388 1023.8L389.2 1036.2L390.5 1048.7L391.7 1061.1L393.1 1073.6"/><path stroke-width="1.6" d="M713.1 85.4L707.9 103.7L732.9 110.7L738.1 92.6ZM471.1 15.3L465.3 35.5L440.3 28.4L446.1 8.1ZM700.2 131.7L695.4 150.1L720.5 156.6L725.3 138.4ZM456.9 66.3L451.5 86.6L426.3 80L431.7 59.6ZM688.2 178.2L683.7 196.7L709 202.8L713.4 184.5ZM443.6 117.6L438.6 137.9L413.4 131.9L418.4 111.3ZM677.1 225L672.9 243.5L698.3 249.1L702.4 230.7ZM431.4 169.1L426.8 189.5L401.4 184L406 163.3ZM666.9 271.9L663.1 290.6L688.6 295.6L692.4 277.2ZM420.1 220.8L416 241.4L390.5 236.3L394.7 215.5ZM657.6 319.1L654.2 337.8L679.8 342.4L683.2 323.8ZM409.9 272.8L406.1 293.4L380.5 288.8L384.3 268ZM649.2 366.4L646.2 385.2L671.9 389.3L674.9 370.7ZM400.7 324.9L397.3 345.6L371.6 341.5L375 320.6ZM641.8 413.9L639.1 432.7L664.8 436.3L667.5 417.6ZM392.5 377.2L389.5 398L363.7 394.4L366.7 373.4ZM635.3 461.5L632.9 480.4L658.7 483.4L661 464.7ZM385.3 429.7L382.7 450.5L356.9 447.4L359.5 426.4ZM629.7 509.2L627.7 528.1L653.6 530.7L655.5 512ZM379.1 482.2L376.9 503.1L351.1 500.5L353.2 479.5ZM625 557L623.4 576L649.3 578.1L650.9 559.3ZM374 534.9L372.2 555.8L346.3 553.8L348.1 532.7ZM621.2 604.9L620 623.9L646 625.5L647.2 606.7ZM369.8 587.7L368.5 608.7L342.5 607.1L343.9 586ZM618.4 652.9L617.6 671.9L643.5 673L644.4 654.2ZM366.7 640.6L365.8 661.5L339.8 660.5L340.8 639.3ZM616.5 700.9L616.1 719.9L642.1 720.5L642.5 701.7ZM364.7 693.5L364.1 714.5L338.1 713.9L338.7 692.7ZM615.6 748.9L615.5 768L641.5 768L641.6 749.2ZM363.6 746.4L363.5 767.4L337.5 767.3L337.6 746.2ZM615.6 797L615.8 816L641.8 815.6L641.6 796.8ZM363.6 799.4L363.9 820.3L337.9 820.8L337.6 799.6ZM616.5 845L617.1 864.1L643.1 863.1L642.5 844.3ZM364.6 852.3L365.3 873.3L339.3 874.2L338.6 853.1ZM618.4 893.1L619.4 912.1L645.3 910.6L644.3 891.8ZM366.7 905.2L367.7 926.2L341.8 927.6L340.7 906.5ZM621.1 941L622.5 960L648.4 958.1L647.1 939.3ZM369.7 958.1L371.2 979L345.3 980.9L343.8 959.8ZM624.9 988.9L626.6 1007.9L652.5 1005.4L650.8 986.7ZM373.8 1010.9L375.7 1031.7L349.8 1034.2L347.9 1013.1Z"/><path stroke-width="1.8" d="M683.3 87.8L677.1 110L671.1 132.3L665.3 154.7L659.6 177.1L654.2 199.5L649 222L644.1 244.6L452.5 203.1L457.9 178.8L463.5 154.6L469.3 130.3L475.4 106.2L481.6 82.1L488.1 58L494.8 34.1ZM637.4 276.6L632.9 299.3L628.6 322L624.5 344.7L620.7 367.5L617 390.3L613.6 413.1L610.4 436L416.2 409.5L419.6 384.9L423.3 360.2L427.3 335.7L431.4 311.1L435.8 286.6L440.4 262.1L445.3 237.7ZM606.2 468.4L603.5 491.4L601 514.3L598.7 537.3L596.6 560.3L594.7 583.3L593.1 606.4L591.6 629.4L396 618.1L397.5 593.3L399.3 568.4L401.3 543.6L403.5 518.8L406 494L408.7 469.3L411.6 444.5ZM590 662.1L589 685.2L588.3 708.3L587.8 731.3L587.6 754.4L587.5 777.5L587.6 800.6L588 823.7L392 827.6L391.6 802.7L391.5 777.8L391.6 752.9L391.9 728L392.4 703.1L393.2 678.2L394.2 653.4ZM588.8 856.4L589.7 879.5L590.8 902.6L592.1 925.6L593.6 948.7L595.3 971.7L597.3 994.7L599.4 1017.7L404.3 1036.8L402 1012L399.9 987.2L398.1 962.4L396.5 937.5L395.1 912.7L393.9 887.8L393 862.9Z"/><g stroke-width="1.3"><circle cx="567.4" cy="142.1" r="72.2"/><circle cx="525.9" cy="339.7" r="72.2"/><circle cx="500" cy="540" r="72.2"/><circle cx="489.7" cy="741.7" r="72.2"/><circle cx="495" cy="943.6" r="72.2"/></g><path stroke-width="1.3" d="M479.6 11.2L468.1 7.9M428.3 216.1L416.5 213.6M393 424.3L381.1 422.8M374 634.7L362 634M371.4 845.8L359.4 846.2M385.2 1056.6L373.3 1057.8"/></svg>